<?xml version="1.0" encoding="UTF-8" standalone="no"?>
<svg
   xmlns:dc="http://purl.org/dc/elements/1.1/"
   xmlns:cc="http://creativecommons.org/ns#"
   xmlns:rdf="http://www.w3.org/1999/02/22-rdf-syntax-ns#"
   xmlns:svg="http://www.w3.org/2000/svg"
   xmlns="http://www.w3.org/2000/svg"
   xmlns:sodipodi="http://sodipodi.sourceforge.net/DTD/sodipodi-0.dtd"
   xmlns:inkscape="http://www.inkscape.org/namespaces/inkscape"
   height="920pt"
   preserveAspectRatio="xMidYMid meet"
   viewBox="0 0 920 920"
   width="920pt"
   version="1.1"
   id="svg4"
   sodipodi:docname="quote_mark.svg"
   inkscape:version="0.92.4 (5da689c313, 2019-01-14)">
  <metadata
     id="metadata10">
    <rdf:RDF>
      <cc:Work
         rdf:about="">
        <dc:format>image/svg+xml</dc:format>
        <dc:type
           rdf:resource="http://purl.org/dc/dcmitype/StillImage" />
      </cc:Work>
    </rdf:RDF>
  </metadata>
  <defs
     id="defs8" />
  <sodipodi:namedview
     pagecolor="#ffffff"
     bordercolor="#666666"
     borderopacity="1"
     objecttolerance="10"
     gridtolerance="10"
     guidetolerance="10"
     inkscape:pageopacity="0"
     inkscape:pageshadow="2"
     inkscape:window-width="1920"
     inkscape:window-height="1001"
     id="namedview6"
     showgrid="false"
     inkscape:zoom="0.1923913"
     inkscape:cx="613.33333"
     inkscape:cy="613.33333"
     inkscape:window-x="-9"
     inkscape:window-y="-9"
     inkscape:window-maximized="1"
     inkscape:current-layer="svg4" />
  <path
     d="m4295 8729c-1332-96-2550-846-3243-1996-409-679-613-1460-588-2248 10-321 43-572 117-872 313-1281 1239-2352 2462-2848 1670-676 3579-201 4732 1180 933 1117 1211 2627 739 4007-450 1314-1552 2325-2901 2662-425 106-883 146-1318 115zm-357-2387c23-23 89-402 74-428-5-9-58-34-118-56-386-137-602-337-710-656-31-94-29-102 37-102 59 0 257-55 343-94 376-173 643-551 663-942 31-582-370-1088-942-1189-119-21-315-24-430-6-93 15-258 67-336 106-171 86-349 242-452 397-148 222-227 458-249 737-40 507 127 1025 454 1416 378 452 933 742 1583 828 58 8 65 7 83-11zm3161 1c18-15 27-49 51-191 33-193 36-234 17-250-7-6-53-25-103-42-212-74-413-195-520-313-67-73-136-183-174-273-39-93-60-161-52-168 3-4 22-6 43-6s71-7 111-15c340-71 632-289 791-592 49-94 102-258 118-362 17-117 7-323-21-431-112-432-454-745-903-826-136-25-344-22-477 5-480 100-821 451-963 990-30 114-30 121-31 361-1 250 6 319 50 495 187 752 782 1327 1603 1551 107 29 370 81 422 83 9 1 26-7 38-16z"
     transform="matrix(.1 0 0 -.1 0 920)"
     id="path2"
     inkscape:export-xdpi="96"
     inkscape:export-ydpi="96" />
  <path
     style="fill:#ffffff;stroke-width:5.19774008"
     d="M 365.88105,837.8645 C 292.8692,818.2118 244.94063,746.62139 245.4875,658.0339 c 0.64767,-104.91703 59.02163,-193.11119 159.82033,-241.46418 41.50107,-19.908 86.99622,-34.01605 109.69379,-34.01605 7.61359,0 10.51009,6.7383 15.82669,36.81853 3.22093,18.22341 2.7856,18.81989 -20.11956,27.56745 -36.73358,14.02868 -64.24315,36.87724 -78.66431,65.33603 -15.60579,30.79656 -16.18297,36.60568 -3.63703,36.60568 20.54323,0 58.68147,17.3924 80.7665,36.83242 32.91296,28.97115 50.10293,65.7826 50.10293,107.29292 0,71.64087 -42.55304,126.10696 -112.82428,144.41029 -35.17171,9.16107 -47.93633,9.23197 -80.57151,0.44753 z"
     id="path26"
     inkscape:connector-curvature="0"
     transform="scale(0.75000002)" />
  <path
     style="fill:#ffffff;stroke-width:5.19774008"
     d="m 366.70348,838.33972 c -34.04148,-9.56456 -60.04834,-27.26149 -83.31067,-56.69056 -69.06507,-87.37386 -41.67355,-243.94659 56.8044,-324.69973 33.96244,-27.84963 100.2725,-60.34921 140.06993,-68.65044 44.84249,-9.35356 43.23581,-10.34956 50.61852,31.37893 3.19049,18.0333 2.50114,19.21214 -14.51959,24.82949 -34.76271,11.47273 -65.14372,35.25292 -81.51886,63.80743 -18.26266,31.8459 -19.64703,40.56652 -6.4398,40.56652 20.89301,0 58.85458,17.54478 81.95198,37.87592 81.61285,71.83851 58.4931,202.76349 -43.36582,245.57652 -25.48979,10.71379 -73.33621,13.5791 -100.29009,6.00592 z"
     id="path28"
     inkscape:connector-curvature="0"
     transform="scale(0.75000002)" />
  <path
     style="fill:#ffffff;stroke-width:5.19774008"
     d="m 792.80792,838.33116 c -79.69886,-22.448 -124.00614,-85.15365 -124.25517,-175.85145 -0.28982,-105.55304 57.03727,-196.82168 153.17497,-243.86499 54.78157,-26.8064 117.2836,-43.02219 123.96789,-32.16274 1.31973,2.14407 4.00287,14.61198 5.96254,27.70649 l 3.56303,23.80818 -23.45361,8.95701 c -36.77417,14.04419 -64.27978,36.88288 -78.70618,65.35202 -7.20862,14.22554 -13.10659,27.98241 -13.10659,30.57083 0,2.58842 8.77119,6.12976 19.49153,7.86965 24.79869,4.02476 56.16967,20.61447 78.60261,41.56691 58.17733,54.33779 56.53237,159.25445 -3.32085,211.80627 -38.10309,33.45495 -95.52512,47.30947 -141.92017,34.24182 z"
     id="path30"
     inkscape:connector-curvature="0"
     transform="scale(0.75000002)" />
  <path
     style="fill:#ffffff;stroke-width:5.19774008"
     d="M 788.94549,837.32162 C 713.14058,816.13637 668.42938,750.91451 668.42938,661.52041 c 0,-74.90831 25.90829,-136.88407 79.71707,-190.69285 35.11813,-35.11813 92.96406,-66.94453 146.17723,-80.42562 51.50125,-13.04739 52.92899,-12.435 58.04595,24.89727 3.13906,22.90198 2.93769,23.29264 -15.07042,29.23586 -33.20657,10.95915 -65.98166,36.84063 -81.98326,64.73964 -17.72064,30.89617 -19.01634,39.60665 -5.89159,39.60665 39.6845,0 98.48977,42.43481 118.5737,85.56466 17.56866,37.72834 17.13649,89.79874 -1.04817,126.29059 -31.94143,64.09809 -107.05243,96.41402 -178.0044,76.58501 z"
     id="path32"
     inkscape:connector-curvature="0"
     transform="scale(0.75000002)"
     inkscape:export-xdpi="96"
     inkscape:export-ydpi="96" />
</svg>
