<svg height="920pt" preserveAspectRatio="xMidYMid meet" viewBox="0 0 920 920" width="920pt" xmlns="http://www.w3.org/2000/svg"><path d="m4295 8729c-1332-96-2550-846-3243-1996-409-679-613-1460-588-2248 10-321 43-572 117-872 313-1281 1239-2352 2462-2848 1670-676 3579-201 4732 1180 933 1117 1211 2627 739 4007-450 1314-1552 2325-2901 2662-425 106-883 146-1318 115zm-357-2387c23-23 89-402 74-428-5-9-58-34-118-56-386-137-602-337-710-656-31-94-29-102 37-102 59 0 257-55 343-94 376-173 643-551 663-942 31-582-370-1088-942-1189-119-21-315-24-430-6-93 15-258 67-336 106-171 86-349 242-452 397-148 222-227 458-249 737-40 507 127 1025 454 1416 378 452 933 742 1583 828 58 8 65 7 83-11zm3161 1c18-15 27-49 51-191 33-193 36-234 17-250-7-6-53-25-103-42-212-74-413-195-520-313-67-73-136-183-174-273-39-93-60-161-52-168 3-4 22-6 43-6s71-7 111-15c340-71 632-289 791-592 49-94 102-258 118-362 17-117 7-323-21-431-112-432-454-745-903-826-136-25-344-22-477 5-480 100-821 451-963 990-30 114-30 121-31 361-1 250 6 319 50 495 187 752 782 1327 1603 1551 107 29 370 81 422 83 9 1 26-7 38-16z" transform="matrix(.1 0 0 -.1 0 920)"/></svg>